<?xml version="1.0" encoding="UTF-8"?><svg id="Layer_1" xmlns="http://www.w3.org/2000/svg" width="900" height="320" viewBox="0 0 900 320"><defs>
<style>
.cls-1,.cls-2{stroke-miterlimit:10;}
.cls-1,.cls-3{fill:none;stroke:#0f0f0f;}
.cls-1,.cls-3,.cls-4{stroke-width:2px;}
.cls-2{fill:#767676;}
.cls-2,.cls-4{stroke:#000;}
.cls-5{fill:#000;stroke-width:0px;}
.cls-3,.cls-4{stroke-linecap:round;stroke-linejoin:round;
.cls-4{fill:#fff;}
</style>
<style>
    @media (prefers-color-scheme: dark) {
      path {fill: #FFF;}
      .cls-1,.cls-3{stroke:#f0f0f0;}
      .cls-2{fill:#898989;}
      .cls-2,.cls-4{stroke:#FFF;}
      .cls-5{fill:#FFF;}
      .cls-4{fill:#FFF;}
      }
</style>
</defs><path class="cls-3" d="M184.8988,78.5528c-7.4305,2.9518-6.5555,11.4979-1.1679,17.4054,1.8321,2.0089,4.5964,3.7661,8.7107,4.8804,16.4571,4.4571,29.1429,6.1714,39.0857,17.8286,0,0,22.8857,27.5143,11.8286,41.9585-6.4413,8.4144-92.536,8.5576-136.4216,7.9769-11.2891-.1494-18.4525-12.1514-13.2356-22.1639h0s12.8571-23.1429,26.7429-28.2857c13.8857-5.1429-1.5429-22.6286-10.8-19.0286l-3.8914,2.2441c-22.864,13.1854-35.4871,36.7882-31.1272,62.8191l.3548,2.3977c1.5824,12.6918,18.2746,22.1741,31.0638,22.0292l130.6286-1.5473h0c17.122-.2762,31.0695-17.9239,30.6-37.8-.7714-32.6571-38.6605-64.9842-45.8571-67.9714-9.0857-3.7714-24-7.7143-36.5143-2.7429Z"/><path class="cls-4" d="M107.4313,103.7855l85.0455-22.0956c3.4848-.9054,7.0893.9743,8.3415,4.35l.278.7495c1.839,4.9574-.9939,10.4207-6.1053,11.7742l-82.4307,21.8261c-4.56,1.2074-9.2859-1.2744-10.8804-5.7138h0c-1.6576-4.6151,1.0053-9.6573,5.7514-10.8903Z"/><path class="cls-5" d="M67.9785,244.8145v7.3203h-1.7041v-7.1523c0-2.6641-1.3442-4.0322-3.6245-4.0322-2.5918,0-4.2241,1.6797-4.2241,4.5596v6.625h-1.7041v-7.1523c0-2.6641-1.3442-4.0322-3.6484-4.0322-2.5684,0-4.2241,1.6797-4.2241,4.5596v6.625h-1.7046v-12.625h1.6323v2.3037c.8882-1.5117,2.52-2.3994,4.6323-2.3994,2.0884,0,3.7202.8877,4.4883,2.6641.9121-1.6328,2.7124-2.6641,4.9927-2.6641,3.0718,0,5.0884,1.7754,5.0884,5.4004Z"/><path class="cls-5" d="M82.1377,244.3105v7.8242h-1.6328v-1.9678c-.7676,1.2959-2.2559,2.0879-4.3438,2.0879-2.8564,0-4.6084-1.4883-4.6084-3.6729,0-1.9434,1.248-3.5762,4.8721-3.5762h4.0088v-.7676c0-2.1602-1.2246-3.3369-3.5762-3.3369-1.6328,0-3.1689.5762-4.2012,1.4883l-.7676-1.2715c1.2725-1.0801,3.1445-1.7041,5.1367-1.7041,3.2637,0,5.1123,1.6318,5.1123,4.8965ZM80.4336,248.3428v-2.0645h-3.9609c-2.4482,0-3.2402.96-3.2402,2.2559,0,1.4648,1.1768,2.377,3.1924,2.377,1.9199,0,3.3369-.9121,4.0088-2.5684Z"/><path class="cls-5" d="M82.2324,256.0947l.5996-1.2959c.5049.4326,1.1768.6484,1.9688.6484,1.3438,0,2.0879-.8164,2.0879-2.376v-13.5615h1.7041v13.5615c0,2.3281-1.2959,3.8398-3.6963,3.8398-1.0078,0-2.04-.2637-2.6641-.8164ZM86.5049,235.5254c0-.6484.5518-1.2002,1.248-1.2002s1.248.5283,1.248,1.1758c0,.6963-.5283,1.248-1.248,1.248-.6963,0-1.248-.5518-1.248-1.2236Z"/><path class="cls-5" d="M92.0723,245.8223c0-3.7441,2.7363-6.4082,6.4326-6.4082s6.4082,2.6641,6.4082,6.4082-2.7119,6.4326-6.4082,6.4326-6.4326-2.6885-6.4326-6.4326ZM103.1846,245.8223c0-2.9521-1.9922-4.9209-4.6797-4.9209s-4.7051,1.9688-4.7051,4.9209,2.0166,4.9199,4.7051,4.9199,4.6797-1.9678,4.6797-4.9199Z"/><path class="cls-5" d="M114.752,239.4141v1.6553c-.1436,0-.2871-.0234-.4072-.0234-2.6406,0-4.249,1.6797-4.249,4.6562v6.4326h-1.7041v-12.625h1.6328v2.4717c.792-1.6797,2.3994-2.5674,4.7275-2.5674Z"/><path class="cls-5" d="M133.833,244.3105v7.8242h-1.6328v-1.9678c-.7676,1.2959-2.2559,2.0879-4.3438,2.0879-2.8564,0-4.6084-1.4883-4.6084-3.6729,0-1.9434,1.248-3.5762,4.8721-3.5762h4.0088v-.7676c0-2.1602-1.2246-3.3369-3.5762-3.3369-1.6328,0-3.1689.5762-4.2012,1.4883l-.7676-1.2715c1.2725-1.0801,3.1445-1.7041,5.1367-1.7041,3.2637,0,5.1123,1.6318,5.1123,4.8965ZM132.1289,248.3428v-2.0645h-3.9609c-2.4482,0-3.2402.96-3.2402,2.2559,0,1.4648,1.1768,2.377,3.1924,2.377,1.9199,0,3.3369-.9121,4.0088-2.5684Z"/><path class="cls-5" d="M146.5039,252.1348l-4.0088-5.2803-4.0322,5.2803h-1.9199l4.9922-6.4805-4.752-6.1445h1.9199l3.792,4.9443,3.793-4.9443h1.8721l-4.7529,6.1445,5.041,6.4805h-1.9443Z"/><path class="cls-5" d="M150.8955,235.5254c0-.6484.5518-1.2002,1.248-1.2002s1.248.5283,1.248,1.1758c0,.6963-.5283,1.248-1.248,1.248-.6963,0-1.248-.5518-1.248-1.2236ZM151.2793,239.5098h1.7041v12.625h-1.7041v-12.625Z"/><path class="cls-5" d="M155.9834,250.6943l.7686-1.3438c1.0078.792,2.7119,1.416,4.4883,1.416,2.3994,0,3.3838-.8164,3.3838-2.0645,0-3.2881-8.1846-.6953-8.1846-5.6885,0-2.0635,1.7764-3.5996,4.9922-3.5996,1.6328,0,3.4082.4561,4.4648,1.1758l-.7441,1.3682c-1.1045-.7686-2.4248-1.0801-3.7207-1.0801-2.2803,0-3.2881.8877-3.2881,2.0879,0,3.4082,8.1846.8398,8.1846,5.6885,0,2.1846-1.9199,3.6006-5.208,3.6006-2.0889,0-4.1045-.6719-5.1367-1.5605Z"/><path class="cls-5" d="M174.0068,250.6943l.7686-1.3438c1.0078.792,2.7119,1.416,4.4883,1.416,2.3994,0,3.3838-.8164,3.3838-2.0645,0-3.2881-8.1846-.6953-8.1846-5.6885,0-2.0635,1.7764-3.5996,4.9922-3.5996,1.6328,0,3.4082.4561,4.4648,1.1758l-.7441,1.3682c-1.1045-.7686-2.4248-1.0801-3.7207-1.0801-2.2803,0-3.2881.8877-3.2881,2.0879,0,3.4082,8.1846.8398,8.1846,5.6885,0,2.1846-1.9199,3.6006-5.208,3.6006-2.0889,0-4.1045-.6719-5.1367-1.5605Z"/><path class="cls-5" d="M194.1436,251.3672c-.6719.5996-1.6797.8877-2.6641.8877-2.376,0-3.6963-1.3438-3.6963-3.6729v-7.6318h-2.2559v-1.4404h2.2559v-2.7607h1.7041v2.7607h3.8408v1.4404h-3.8408v7.5361c0,1.4883.7686,2.3047,2.1846,2.3047.6963,0,1.3916-.2168,1.8721-.6484l.5996,1.2246Z"/><path class="cls-5" d="M203.5986,239.4141v1.6553c-.1436,0-.2881-.0234-.4072-.0234-2.6406,0-4.249,1.6797-4.249,4.6562v6.4326h-1.7041v-12.625h1.6328v2.4717c.792-1.6797,2.3994-2.5674,4.7275-2.5674Z"/><path class="cls-5" d="M217.5439,246.3506h-10.5605c.1914,2.6396,2.208,4.3916,4.9678,4.3916,1.5361,0,2.9043-.5518,3.8643-1.6553l.9609,1.1035c-1.1289,1.3447-2.8809,2.0645-4.873,2.0645-3.9365,0-6.624-2.6885-6.624-6.4326s2.6162-6.4082,6.168-6.4082,6.1211,2.6162,6.1211,6.4082c0,.1436-.0244.3359-.0244.5283ZM206.9834,245.0781h8.9521c-.2158-2.4727-2.0156-4.2002-4.4883-4.2002-2.4482,0-4.248,1.7275-4.4639,4.2002Z"/><path class="cls-5" d="M232.6631,244.8145v7.3203h-1.7041v-7.1523c0-2.6641-1.3926-4.0322-3.792-4.0322-2.7129,0-4.417,1.6797-4.417,4.5596v6.625h-1.7041v-12.625h1.6328v2.3281c.9121-1.5361,2.6162-2.4238,4.7998-2.4238,3.0723,0,5.1846,1.7754,5.1846,5.4004Z"/><path class="cls-5" d="M249.0312,239.5098v11.0889c0,4.3447-2.1367,6.3125-6.3125,6.3125-2.3047,0-4.5605-.6963-5.8809-1.9443l.8643-1.2959c1.2002,1.0801,3.0244,1.7285,4.9688,1.7285,3.1914,0,4.6562-1.4648,4.6562-4.585v-1.6084c-1.0566,1.6084-2.8564,2.4482-4.9209,2.4482-3.5996,0-6.3359-2.5195-6.3359-6.1445s2.7363-6.0957,6.3359-6.0957c2.1123,0,3.9365.8633,4.9922,2.5195v-2.4238h1.6328ZM247.375,245.5098c0-2.7354-2.0166-4.6084-4.8008-4.6084s-4.7764,1.873-4.7764,4.6084,1.9922,4.6328,4.7764,4.6328,4.8008-1.8965,4.8008-4.6328Z"/><path class="cls-5" d="M260.4541,251.3672c-.6719.5996-1.6797.8877-2.6641.8877-2.376,0-3.6963-1.3438-3.6963-3.6729v-7.6318h-2.2559v-1.4404h2.2559v-2.7607h1.7041v2.7607h3.8408v1.4404h-3.8408v7.5361c0,1.4883.7686,2.3047,2.1846,2.3047.6963,0,1.3916-.2168,1.8721-.6484l.5996,1.2246Z"/><path class="cls-5" d="M275.167,244.8145v7.3203h-1.7041v-7.1523c0-2.6641-1.3926-4.0322-3.792-4.0322-2.7129,0-4.417,1.6797-4.417,4.5596v6.625h-1.7041v-17.8096h1.7041v7.3926c.9365-1.4639,2.5928-2.3037,4.7285-2.3037,3.0723,0,5.1846,1.7754,5.1846,5.4004Z"/><path class="cls-5" d="M346.7871,239.5098v11.0889c0,4.3447-2.1362,6.3125-6.313,6.3125-2.3042,0-4.5601-.6963-5.8804-1.9443l.8643-1.2959c1.2002,1.0801,3.0244,1.7285,4.9683,1.7285,3.1924,0,4.6562-1.4648,4.6562-4.585v-1.6084c-1.0557,1.6084-2.856,2.4482-4.9204,2.4482-3.6001,0-6.3364-2.5195-6.3364-6.1445s2.7363-6.0957,6.3364-6.0957c2.1123,0,3.9365.8633,4.9927,2.5195v-2.4238h1.6323ZM345.1309,245.5098c0-2.7354-2.0161-4.6084-4.8003-4.6084s-4.7769,1.873-4.7769,4.6084,1.9922,4.6328,4.7769,4.6328,4.8003-1.8965,4.8003-4.6328Z"/><path class="cls-5" d="M361.0908,244.3105v7.8242h-1.6328v-1.9678c-.7676,1.2959-2.2559,2.0879-4.3438,2.0879-2.8564,0-4.6084-1.4883-4.6084-3.6729,0-1.9434,1.248-3.5762,4.8721-3.5762h4.0088v-.7676c0-2.1602-1.2246-3.3369-3.5762-3.3369-1.6328,0-3.1689.5762-4.2007,1.4883l-.7681-1.2715c1.272-1.0801,3.1445-1.7041,5.1367-1.7041,3.2637,0,5.1123,1.6318,5.1123,4.8965ZM359.3867,248.3428v-2.0645h-3.9609c-2.4478,0-3.2397.96-3.2397,2.2559,0,1.4648,1.1758,2.377,3.1919,2.377,1.9199,0,3.3369-.9121,4.0088-2.5684Z"/><path class="cls-5" d="M372.3701,251.3672c-.6719.5996-1.6797.8877-2.6641.8877-2.376,0-3.6963-1.3438-3.6963-3.6729v-7.6318h-2.2559v-1.4404h2.2559v-2.7607h1.7041v2.7607h3.8408v1.4404h-3.8408v7.5361c0,1.4883.7686,2.3047,2.1846,2.3047.6963,0,1.3916-.2168,1.8721-.6484l.5996,1.2246Z"/><path class="cls-5" d="M386.002,246.3506h-10.5605c.1914,2.6396,2.208,4.3916,4.9678,4.3916,1.5361,0,2.9043-.5518,3.8643-1.6553l.9609,1.1035c-1.1289,1.3447-2.8809,2.0645-4.873,2.0645-3.9365,0-6.624-2.6885-6.624-6.4326s2.6162-6.4082,6.168-6.4082,6.1211,2.6162,6.1211,6.4082c0,.1436-.0244.3359-.0244.5283ZM375.4414,245.0781h8.9521c-.2158-2.4727-2.0156-4.2002-4.4883-4.2002-2.4482,0-4.248,1.7275-4.4639,4.2002Z"/><path class="cls-5" d="M394.5215,245.8223c0-3.7441,2.7363-6.4082,6.4326-6.4082s6.4082,2.6641,6.4082,6.4082-2.7119,6.4326-6.4082,6.4326-6.4326-2.6885-6.4326-6.4326ZM405.6338,245.8223c0-2.9521-1.9922-4.9209-4.6797-4.9209s-4.7051,1.9688-4.7051,4.9209,2.0166,4.9199,4.7051,4.9199,4.6797-1.9678,4.6797-4.9199Z"/><path class="cls-5" d="M423.6338,245.8223c0,3.8398-2.6875,6.4326-6.2881,6.4326-2.0166,0-3.7441-.8643-4.8008-2.4961v7.0322h-1.7041v-17.2812h1.6328v2.4961c1.0312-1.6797,2.7842-2.5918,4.8721-2.5918,3.6006,0,6.2881,2.5918,6.2881,6.4082ZM421.9297,245.8223c0-2.9287-2.04-4.9209-4.7041-4.9209-2.6885,0-4.7041,1.9922-4.7041,4.9209,0,2.9521,2.0156,4.9199,4.7041,4.9199,2.6641,0,4.7041-1.9678,4.7041-4.9199Z"/><path class="cls-5" d="M438.1055,246.3506h-10.5605c.1914,2.6396,2.208,4.3916,4.9678,4.3916,1.5361,0,2.9043-.5518,3.8643-1.6553l.9609,1.1035c-1.1289,1.3447-2.8809,2.0645-4.873,2.0645-3.9365,0-6.624-2.6885-6.624-6.4326s2.6162-6.4082,6.168-6.4082,6.1211,2.6162,6.1211,6.4082c0,.1436-.0244.3359-.0244.5283ZM427.5449,245.0781h8.9521c-.2158-2.4727-2.0156-4.2002-4.4883-4.2002-2.4482,0-4.248,1.7275-4.4639,4.2002Z"/><path class="cls-5" d="M453.2256,244.8145v7.3203h-1.7041v-7.1523c0-2.6641-1.3926-4.0322-3.792-4.0322-2.7129,0-4.417,1.6797-4.417,4.5596v6.625h-1.7041v-12.625h1.6328v2.3281c.9121-1.5361,2.6162-2.4238,4.7998-2.4238,3.0723,0,5.1846,1.7754,5.1846,5.4004Z"/><path class="cls-5" d="M462.3916,250.6943l.7686-1.3438c1.0078.792,2.7119,1.416,4.4883,1.416,2.3994,0,3.3838-.8164,3.3838-2.0645,0-3.2881-8.1846-.6953-8.1846-5.6885,0-2.0635,1.7764-3.5996,4.9922-3.5996,1.6328,0,3.4082.4561,4.4648,1.1758l-.7441,1.3682c-1.1045-.7686-2.4248-1.0801-3.7207-1.0801-2.2803,0-3.2881.8877-3.2881,2.0879,0,3.4082,8.1846.8398,8.1846,5.6885,0,2.1846-1.9199,3.6006-5.208,3.6006-2.0889,0-4.1045-.6719-5.1367-1.5605Z"/><path class="cls-5" d="M482.5283,251.3672c-.6719.5996-1.6797.8877-2.6641.8877-2.376,0-3.6963-1.3438-3.6963-3.6729v-7.6318h-2.2559v-1.4404h2.2559v-2.7607h1.7041v2.7607h3.8408v1.4404h-3.8408v7.5361c0,1.4883.7686,2.3047,2.1846,2.3047.6963,0,1.3916-.2168,1.8721-.6484l.5996,1.2246Z"/><path class="cls-5" d="M491.9844,239.4141v1.6553c-.1436,0-.2871-.0234-.4072-.0234-2.6406,0-4.249,1.6797-4.249,4.6562v6.4326h-1.7041v-12.625h1.6328v2.4717c.792-1.6797,2.3994-2.5674,4.7275-2.5674Z"/><path class="cls-5" d="M505.9287,246.3506h-10.5605c.1914,2.6396,2.208,4.3916,4.9678,4.3916,1.5361,0,2.9043-.5518,3.8643-1.6553l.9609,1.1035c-1.1289,1.3447-2.8809,2.0645-4.873,2.0645-3.9365,0-6.624-2.6885-6.624-6.4326s2.6162-6.4082,6.168-6.4082,6.1211,2.6162,6.1211,6.4082c0,.1436-.0244.3359-.0244.5283ZM495.3682,245.0781h8.9521c-.2158-2.4727-2.0156-4.2002-4.4883-4.2002-2.4482,0-4.248,1.7275-4.4639,4.2002Z"/><path class="cls-5" d="M521.0488,244.8145v7.3203h-1.7041v-7.1523c0-2.6641-1.3926-4.0322-3.792-4.0322-2.7129,0-4.417,1.6797-4.417,4.5596v6.625h-1.7041v-12.625h1.6328v2.3281c.9121-1.5361,2.6162-2.4238,4.7998-2.4238,3.0723,0,5.1846,1.7754,5.1846,5.4004Z"/><path class="cls-5" d="M537.416,239.5098v11.0889c0,4.3447-2.1367,6.3125-6.3125,6.3125-2.3047,0-4.5605-.6963-5.8809-1.9443l.8643-1.2959c1.2002,1.0801,3.0244,1.7285,4.9688,1.7285,3.1914,0,4.6562-1.4648,4.6562-4.585v-1.6084c-1.0566,1.6084-2.8564,2.4482-4.9209,2.4482-3.5996,0-6.3359-2.5195-6.3359-6.1445s2.7363-6.0957,6.3359-6.0957c2.1123,0,3.9365.8633,4.9922,2.5195v-2.4238h1.6328ZM535.7598,245.5098c0-2.7354-2.0166-4.6084-4.8008-4.6084s-4.7764,1.873-4.7764,4.6084,1.9922,4.6328,4.7764,4.6328,4.8008-1.8965,4.8008-4.6328Z"/><path class="cls-5" d="M548.8389,251.3672c-.6719.5996-1.6797.8877-2.6641.8877-2.376,0-3.6963-1.3438-3.6963-3.6729v-7.6318h-2.2559v-1.4404h2.2559v-2.7607h1.7041v2.7607h3.8408v1.4404h-3.8408v7.5361c0,1.4883.7686,2.3047,2.1846,2.3047.6963,0,1.3916-.2168,1.8721-.6484l.5996,1.2246Z"/><path class="cls-5" d="M563.5518,244.8145v7.3203h-1.7041v-7.1523c0-2.6641-1.3926-4.0322-3.792-4.0322-2.7129,0-4.417,1.6797-4.417,4.5596v6.625h-1.7041v-17.8096h1.7041v7.3926c.9365-1.4639,2.5928-2.3037,4.7285-2.3037,3.0723,0,5.1846,1.7754,5.1846,5.4004Z"/><path class="cls-5" d="M643.9194,244.8145v7.3203h-1.7041v-7.1523c0-2.6641-1.3442-4.0322-3.6245-4.0322-2.5918,0-4.2241,1.6797-4.2241,4.5596v6.625h-1.7041v-7.1523c0-2.6641-1.3442-4.0322-3.6484-4.0322-2.5684,0-4.2241,1.6797-4.2241,4.5596v6.625h-1.7046v-12.625h1.6323v2.3037c.8882-1.5117,2.52-2.3994,4.6323-2.3994,2.0884,0,3.7202.8877,4.4883,2.6641.9121-1.6328,2.7124-2.6641,4.9927-2.6641,3.0718,0,5.0884,1.7754,5.0884,5.4004Z"/><path class="cls-5" d="M648.1655,235.5254c0-.6484.5518-1.2002,1.248-1.2002s1.248.5283,1.248,1.1758c0,.6963-.5283,1.248-1.248,1.248-.6963,0-1.248-.5518-1.248-1.2236ZM648.5493,239.5098h1.7041v12.625h-1.7041v-12.625Z"/><path class="cls-5" d="M666.6226,244.8145v7.3203h-1.7041v-7.1523c0-2.6641-1.3926-4.0322-3.792-4.0322-2.7129,0-4.417,1.6797-4.417,4.5596v6.625h-1.7041v-12.625h1.6328v2.3281c.9121-1.5361,2.6162-2.4238,4.7998-2.4238,3.0723,0,5.1846,1.7754,5.1846,5.4004Z"/><path class="cls-5" d="M670.0298,245.8223c0-3.7441,2.7354-6.4082,6.4326-6.4082s6.4082,2.6641,6.4082,6.4082-2.7119,6.4326-6.4082,6.4326-6.4326-2.6885-6.4326-6.4326ZM681.1421,245.8223c0-2.9521-1.9922-4.9209-4.6797-4.9209s-4.7051,1.9688-4.7051,4.9209,2.0166,4.9199,4.7051,4.9199,4.6797-1.9678,4.6797-4.9199Z"/><path class="cls-5" d="M692.7095,239.4141v1.6553c-.1436,0-.2881-.0234-.4072-.0234-2.6406,0-4.249,1.6797-4.249,4.6562v6.4326h-1.7041v-12.625h1.6328v2.4717c.792-1.6797,2.3994-2.5674,4.7275-2.5674Z"/><path class="cls-5" d="M711.7896,244.3105v7.8242h-1.6328v-1.9678c-.7676,1.2959-2.2559,2.0879-4.3438,2.0879-2.8564,0-4.6084-1.4883-4.6084-3.6729,0-1.9434,1.248-3.5762,4.8721-3.5762h4.0088v-.7676c0-2.1602-1.2246-3.3369-3.5762-3.3369-1.6328,0-3.1689.5762-4.2012,1.4883l-.7676-1.2715c1.2725-1.0801,3.1445-1.7041,5.1367-1.7041,3.2637,0,5.1123,1.6318,5.1123,4.8965ZM710.0854,248.3428v-2.0645h-3.9609c-2.4482,0-3.2402.96-3.2402,2.2559,0,1.4648,1.1768,2.377,3.1924,2.377,1.9199,0,3.3369-.9121,4.0088-2.5684Z"/><path class="cls-5" d="M724.4614,252.1348l-4.0088-5.2803-4.0322,5.2803h-1.9199l4.9922-6.4805-4.752-6.1445h1.9199l3.792,4.9443,3.793-4.9443h1.8721l-4.7529,6.1445,5.041,6.4805h-1.9443Z"/><path class="cls-5" d="M728.8521,235.5254c0-.6484.5518-1.2002,1.248-1.2002s1.248.5283,1.248,1.1758c0,.6963-.5283,1.248-1.248,1.248-.6963,0-1.248-.5518-1.248-1.2236ZM729.2358,239.5098h1.7041v12.625h-1.7041v-12.625Z"/><path class="cls-5" d="M733.9399,250.6943l.7686-1.3438c1.0078.792,2.7119,1.416,4.4883,1.416,2.3994,0,3.3838-.8164,3.3838-2.0645,0-3.2881-8.1846-.6953-8.1846-5.6885,0-2.0635,1.7764-3.5996,4.9922-3.5996,1.6328,0,3.4082.4561,4.4648,1.1758l-.7441,1.3682c-1.1045-.7686-2.4248-1.0801-3.7207-1.0801-2.2803,0-3.2881.8877-3.2881,2.0879,0,3.4082,8.1846.8398,8.1846,5.6885,0,2.1846-1.9199,3.6006-5.208,3.6006-2.0889,0-4.1045-.6719-5.1367-1.5605Z"/><path class="cls-5" d="M751.9634,250.6943l.7686-1.3438c1.0078.792,2.7119,1.416,4.4883,1.416,2.3994,0,3.3838-.8164,3.3838-2.0645,0-3.2881-8.1846-.6953-8.1846-5.6885,0-2.0635,1.7764-3.5996,4.9922-3.5996,1.6328,0,3.4082.4561,4.4648,1.1758l-.7441,1.3682c-1.1045-.7686-2.4248-1.0801-3.7207-1.0801-2.2803,0-3.2881.8877-3.2881,2.0879,0,3.4082,8.1846.8398,8.1846,5.6885,0,2.1846-1.9199,3.6006-5.208,3.6006-2.0889,0-4.1045-.6719-5.1367-1.5605Z"/><path class="cls-5" d="M772.1001,251.3672c-.6719.5996-1.6797.8877-2.6641.8877-2.376,0-3.6963-1.3438-3.6963-3.6729v-7.6318h-2.2559v-1.4404h2.2559v-2.7607h1.7041v2.7607h3.8408v1.4404h-3.8408v7.5361c0,1.4883.7686,2.3047,2.1846,2.3047.6963,0,1.3916-.2168,1.8721-.6484l.5996,1.2246Z"/><path class="cls-5" d="M781.5562,239.4141v1.6553c-.1436,0-.2871-.0234-.4072-.0234-2.6406,0-4.249,1.6797-4.249,4.6562v6.4326h-1.7041v-12.625h1.6328v2.4717c.792-1.6797,2.3994-2.5674,4.7275-2.5674Z"/><path class="cls-5" d="M795.5005,246.3506h-10.5605c.1914,2.6396,2.208,4.3916,4.9678,4.3916,1.5361,0,2.9043-.5518,3.8643-1.6553l.9609,1.1035c-1.1289,1.3447-2.8809,2.0645-4.873,2.0645-3.9365,0-6.624-2.6885-6.624-6.4326s2.6162-6.4082,6.168-6.4082,6.1211,2.6162,6.1211,6.4082c0,.1436-.0244.3359-.0244.5283ZM784.9399,245.0781h8.9521c-.2158-2.4727-2.0156-4.2002-4.4883-4.2002-2.4482,0-4.248,1.7275-4.4639,4.2002Z"/><path class="cls-5" d="M810.6206,244.8145v7.3203h-1.7041v-7.1523c0-2.6641-1.3926-4.0322-3.792-4.0322-2.7129,0-4.417,1.6797-4.417,4.5596v6.625h-1.7041v-12.625h1.6328v2.3281c.9121-1.5361,2.6162-2.4238,4.7998-2.4238,3.0723,0,5.1846,1.7754,5.1846,5.4004Z"/><path class="cls-5" d="M826.9888,239.5098v11.0889c0,4.3447-2.1367,6.3125-6.3125,6.3125-2.3047,0-4.5605-.6963-5.8809-1.9443l.8643-1.2959c1.2002,1.0801,3.0244,1.7285,4.9688,1.7285,3.1914,0,4.6562-1.4648,4.6562-4.585v-1.6084c-1.0566,1.6084-2.8564,2.4482-4.9209,2.4482-3.6006,0-6.3359-2.5195-6.3359-6.1445s2.7354-6.0957,6.3359-6.0957c2.1123,0,3.9365.8633,4.9922,2.5195v-2.4238h1.6328ZM825.3325,245.5098c0-2.7354-2.0166-4.6084-4.8008-4.6084s-4.7764,1.873-4.7764,4.6084,1.9922,4.6328,4.7764,4.6328,4.8008-1.8965,4.8008-4.6328Z"/><path class="cls-5" d="M838.4106,251.3672c-.6719.5996-1.6797.8877-2.6641.8877-2.376,0-3.6963-1.3438-3.6963-3.6729v-7.6318h-2.2559v-1.4404h2.2559v-2.7607h1.7041v2.7607h3.8408v1.4404h-3.8408v7.5361c0,1.4883.7686,2.3047,2.1846,2.3047.6963,0,1.3916-.2168,1.8721-.6484l.5996,1.2246Z"/><path class="cls-5" d="M853.124,244.8145v7.3203h-1.7041v-7.1523c0-2.6641-1.3926-4.0322-3.792-4.0322-2.7129,0-4.4175,1.6797-4.4175,4.5596v6.625h-1.7041v-17.8096h1.7041v7.3926c.937-1.4639,2.5933-2.3037,4.729-2.3037,3.0723,0,5.1846,1.7754,5.1846,5.4004Z"/><path class="cls-3" d="M90.1119,120.7249c-8.6048,11.4009-12.4206,25.5568-9.8325,40.6042l.3316,2.182c1.4788,11.55,17.0784,20.1792,29.0305,20.0473l122.0781-1.4081h0c16.0013-.2513,29.0358-16.3113,28.597-34.3993-.7209-29.7191-36.13-59.1377-42.8555-61.8563"/><circle class="cls-1" cx="110.7826" cy="111.4202" r="3"/><polygon class="cls-2" points="104.156 144.0385 66.7846 144.0385 66.7846 138.5528 53.0703 149.1814 66.8703 159.1243 66.8703 153.9814 104.3274 153.9814 104.156 144.0385"/><polygon class="cls-2" points="234.8703 149.8131 272.2417 149.8131 272.2417 155.2988 285.956 144.6702 272.156 134.7274 272.156 139.8702 234.6988 139.8702 234.8703 149.8131"/><path class="cls-3" d="M472.8518,78.5528c-7.4305,2.9518-6.5555,11.4979-1.1679,17.4054,1.8321,2.0089,4.5964,3.7661,8.7107,4.8804,16.4571,4.4571,29.1429,6.1714,39.0857,17.8286,0,0,22.8857,27.5143,11.8286,41.9585-6.4413,8.4144-92.536,8.5576-136.4216,7.9769-11.2891-.1494-18.4525-12.1514-13.2356-22.1639h0s12.8571-23.1429,26.7429-28.2857c13.8857-5.1429-1.5429-22.6286-10.8-19.0286l-3.8914,2.2441c-22.864,13.1854-35.4871,36.7882-31.1272,62.8191l.3548,2.3977c1.5824,12.6918,18.2746,22.1741,31.0638,22.0292l130.6286-1.5473h0c17.122-.2762,31.0695-17.9239,30.6-37.8-.7714-32.6571-38.6605-64.9842-45.8571-67.9714-9.0857-3.7714-24-7.7143-36.5143-2.7429Z"/><path class="cls-3" d="M378.0648,120.7249c-8.6048,11.4009-12.4206,25.5568-9.8325,40.6042l.3316,2.182c1.4788,11.55,17.0784,20.1792,29.0305,20.0473l122.0781-1.4081h0c16.0013-.2513,29.0358-16.3113,28.597-34.3993-.7209-29.7191-36.13-59.1377-42.8555-61.8563"/><polygon class="cls-2" points="392.1089 144.0385 354.7375 144.0385 354.7375 138.5528 341.0232 149.1814 354.8232 159.1243 354.8232 153.9814 392.2803 153.9814 392.1089 144.0385"/><polygon class="cls-2" points="522.8232 149.8131 560.1946 149.8131 560.1946 155.2988 573.9089 144.6702 560.1089 134.7274 560.1089 139.8702 522.6518 139.8702 522.8232 149.8131"/><path class="cls-3" d="M730.1274,78.5528c-7.4305,2.9518-6.5555,11.4979-1.1679,17.4054,1.8321,2.0089,4.5964,3.7661,8.7107,4.8804,16.4571,4.4571,29.1429,6.1714,39.0857,17.8286,0,0,22.8857,27.5143,11.8286,41.9585-6.4413,8.4144-92.536,8.5576-136.4216,7.9769-11.2891-.1494-18.4525-12.1514-13.2356-22.1639h0s12.8571-23.1429,26.7429-28.2857c13.8857-5.1429-1.5429-22.6286-10.8-19.0286l-3.8914,2.2441c-22.864,13.1854-35.4871,36.7882-31.1272,62.8191l.3548,2.3977c1.5824,12.6918,18.2746,22.1741,31.0638,22.0292l130.6286-1.5473h0c17.122-.2762,31.0695-17.9239,30.6-37.8-.7714-32.6571-38.6605-64.9842-45.8571-67.9714-9.0857-3.7714-24-7.7143-36.5143-2.7429Z"/><path class="cls-3" d="M635.3404,120.7249c-8.6048,11.4009-12.4206,25.5568-9.8325,40.6042l.3316,2.182c1.4788,11.55,17.0784,20.1792,29.0305,20.0473l122.0781-1.4081h0c16.0013-.2513,29.0358-16.3113,28.597-34.3993-.7209-29.7191-36.13-59.1377-42.8555-61.8563"/><path class="cls-4" d="M652.6598,103.7855l85.0455-22.0956c3.4848-.9054,7.0893.9743,8.3415,4.35l.278.7495c1.839,4.9574-.9939,10.4207-6.1053,11.7742l-82.4307,21.8261c-4.56,1.2074-9.2859-1.2744-10.8804-5.7138h0c-1.6576-4.6151,1.0053-9.6573,5.7514-10.8903Z"/><polygon class="cls-2" points="711.8544 160.797 711.8544 198.1684 706.3687 198.1684 716.9973 211.8827 726.9401 198.0827 721.7973 198.0827 721.7973 160.6256 711.8544 160.797"/><polygon class="cls-2" points="717.629 113.8634 717.629 76.4919 723.1147 76.4919 712.4861 62.7776 702.5433 76.5776 707.6861 76.5776 707.6861 114.0348 717.629 113.8634"/><path class="cls-4" d="M400.5901,104.8648l79.2417,37.9698c3.247,1.5558,4.789,5.3171,3.5687,8.7045l-.2709.7521c-1.7922,4.9745-7.4809,7.3223-12.2599,5.0596l-77.0698-36.4891c-4.2635-2.0186-6.2741-6.9633-4.6291-11.3843h0c1.71-4.5959,6.9972-6.7315,11.4194-4.6125Z"/><circle class="cls-1" cx="398.2267" cy="112.8606" r="3"/><circle class="cls-1" cx="656.0112" cy="111.4202" r="3"/>
</svg>