<svg xmlns="http://www.w3.org/2000/svg" viewBox="0 0 400 400">
<path d="M332.41 9.05c1.43 5.4-3.07 6.81-6.63 12.95l-8.68 15-5.99 8c-5.24 8.01-1.51 5.29-10.11 14 2.61-1.1 5.18-2.36 8-2.79 8.48-1.28 21.55 1.36 21.98 11.79.47 11.42-2.32 11.18-6.7 20-1.79 3.59-2.18 6.75-4.58 10-2.2 2.99-8.13 9.18-9.32 12.42-1.19 3.22-1.08 16.63 1.93 18.57 2.01 1.25 10.51-.05 13.69 0 11.98.3 20.89 7.24 18.67 20.01-1.48 8.56-7.92 20.94-11.55 29l-2.89 8-9.7 19c-1.75 2.93-10.68 14.24-10.84 16.42-.22 3 4.09 5.53 6.31 6.79 4.93 2.78 12.42 6.96 14.17 12.79 2.39 7.97-8.26 13.97-13.17 18 9.27-3.93 15.71-6.57 26-4.1 4.43 1.06 8.47 1.79 8.88 7.1.51 6.73-5.05 6.59-11.88 10.96l-17.96 14.17c-4 2.97-9.48 5.54-11.95 9.86-2.94 5.12 1.82 5.17 4.4 7.7 1.93 1.9 2.53 4.69 2.13 7.31-.94 6.08-6.78 8.1-9.1 19-.82 3.83-.51 13.57-.52 18l-2 26c9.98-2.15 9.81-7.29 11.66-16l5.14-28c.82-4.24.7-10.11 4.2-13-3.86 15.87 3.73 31.57 6.13 47 .8 5.09 4.11 12.12 1.58 16.71-1.42 2.58-7.05 7.07-9.71 8.31l-28 6.54c-3.24.51-11.72 1.34-14.08-1.16-.87-.92-1.72-3.2-2.25-4.4-1.19-2.71-2.43-4.96-2.47-8-.12-6.96 8.41-21.66 11.8-28-3.37-2.6-5.16-8.99-3.52-13 4.58-11.21 13.35-14.2 13.52-28l-17 8 1.31-11.79L297.85 295l3.15-17-1-1-8 5.21-35 22.42-6.91 3.06c-1.44.71-3.87 2.37-5.25 2.66-4.99 1.03-5.99-3.53-5.66-7.35l.82-5c1.82.29 4.2.85 6 .56 3.82-.63 15.27-9.61 20-12.25l20-12.97c4.6-2.64 12.47-5.6 15.18-10.38 1.46-2.82 1.32-19.74 0-22.87-1.3-3.51-4.19-4.45-4.95-9.09-1.16-7.06 3.94-6.77 4.66-12.02L298 204c5.61.46 6.41 1.67 8 7 10.54-11.59 18.3-33.18 23.95-48 1.15-3.02 5.26-15.02 3.28-17.4-1.38-1.67-4.27-1.51-6.23-1.68l-16-.92c0 12.94 1.05 36.45-3.83 47.98-2.49 5.89-7.22 6.31-12.06 2.45-3.86-3.08-6.46-9.65-7.11-14.43-6.38-1.93-6.5-5.67-10.29-10.58-2.71-3.51-5.67-6.37-7.79-10.42-7.51-14.3 6.25-21.25 18.08-23.99 3.34-.77 10.25-1.68 12.2-4.32 2.75-3.14.74-9.15 0-12.69-2.43 1.89-4.67 3.77-7.2 5.27-6.86 4.07-11.65 1.77-11.96-6.27-.27-7.03 3.2-18.85 8.43-23.69 3.46-3.2 9.12-2.31 13.53-2.31l4 6c3.45-9.41 12.28-20.68 10-31l-8.99 3.41-18.02 16.61L278 96c-1.34-.86-2-1-3.02-2.41-1.81-2.5-5.64-11.33-3.94-14.25 1.49-2.58 5.49-3.71 7.92-5.33 3.04-2.01 5.4-5.11 7.56-8.01 5.21-7 7.35-12.47 11.26-20 7.73-14.89 13.85-27.16 16.22-44 5.39.02 16.71.64 18.41 7.05ZM117.77 32.99c4.65-2.97 4.19-13.15 3.85-17.99-.91-12.92 14.85-3.55 16.63 1.09C139.86 20.3 135.98 26.3 134 30c8.41-2.44 15.74-5.69 23.98-1.18 1.39.76 3.19 1.83 3.85 3.35 2.21 5.03-7.19 4.9-9.83 5.25-4.89.66-17.19.42-20.79 2.6-2.57 1.55-4.13 5.41-5.66 7.98L117 60c9.5-.8 15.67-4.7 25 .93 1.69 1.02 4.12 2.72 5.22 4.37 2.7 4.04-1.07 9.62-2.52 13.7l-6.83 25c-.86 3.45-2.71 11.1-4.86 13.69-3.51 4.22-7.57 1.83-9.01-2.69l-18 1c4.38 6.23 2.31 9.18 0 16 11.99 0 24.14-1.52 36-3.27l16-2.64c5.26-.3 11.69 1.69 15.96 4.76 2.62 1.89 6.61 6.41 1.88 8.55-1.58.72-5.04.6-6.84.6h-41l-22 1c0 22.69 1.28 32.74-6 55-6.73-2.14-5.99-7.99-6-14v-40c-10.91.5-22.28 1.89-33 4-6.67 1.31-17.76 4.23-24 3.96-3.75-.16-9.83-1.72-12.85-3.95-1.81-1.34-3.83-4.06-1.53-5.99 1.71-1.43 8.02-1 10.38-1.02l10-1.04h9l20-2.79L94 133l-2-16-14.87 1.59c-3.16 1.25-4.87 5.81-8.74 2.79-3.14-2.45-3.87-8.65-4.39-12.38l-4.76-28c-2.05-5.75-7.21-9.28-5.16-12.4C55.61 66.27 64.27 67.03 67 67c7.71-.09 42.91-4.83 50-7h-4l4-18c-7.57 3.12-8.92 1.05-16-2 2.42-6.92 11.54-3.66 16.77-7.01Zm-42.79-9.77C75.9 24.76 76.68 33.55 77 36c6.13-2.26 9.83-3.8 16-1-2.27 5.92-9.23 7.11-15 8 1.34 4.07 2.54 9.69 1.85 13.98-.37 2.37-1.75 5.12-4.65 3.85C71.93 59.4 69.76 50.35 69 47l-12 4.43c-9.47 4.05-14.8 7.75-22.69-2.45-2.02-2.61-2.06-3.86-2.31-7.06h17L66 39c-3.28-5.93-7.79-13.3-8-20 4.9-.65 14.05-.64 16.98 4.22ZM283 18l4 19 7-2c-.24 9.63-3.99 17.18-14 19-2.04-8.69-5.35-12.1-4.98-22 .29-7.69 3.04-4.65 2.98-13l5-1Zm17 41 1 1v-1h-1ZM122 70l-52 4 2 16 31-4.42 16-2.39 9 1.81c1.31-7.31 3.78-14.82-6-15ZM98 95.13c-6.94.97-18.31 2.95-25 1.87.47 2.64.86 10.6 2.6 12.03 2.55 1.97 10.22.34 13.4 0 11.05-.98 24.49-4.59 35-2.03l3-16-29 4.13ZM291 111c6.8-3.22 9.98-6.38 5-13-4.15 4.58-4.85 6.93-5 13Zm9.83 34.31c-2.83-4.16-16.82-1.37-20.81.42-1.65.74-3.71 1.83-4.35 3.65-1.07 2.99 1.68 7.43 3.55 9.58C284.36 164.88 293 170.48 300 174c.53-6.54 4.51-23.28.83-28.69ZM81 237.85c2.53-.31 7.42-.63 8.69-3.16 1.9-3.75-1.19-12.04-2.52-15.69-.78-2.16-1.73-5.25.43-6.98 3.58-2.86 19.25.48 20.93 8 .69 3.08-1.93 9.13-2.53 12.98 11.01-2.49 22.11-9.93 33-4.74 4.45 2.12 9.79 4.82 8.31 10.74-.71 2.84-4.63 7.81-6.31 11 7.1-2.08 25.26-4.93 32-2.44 2.84 1.05 10.44 4.98 8.6 8.96-1.17 2.54-6.25 2.45-8.6 2.48l-37 1-2.95 12 .79 7.4-7.84 1.69-23 1.91v11c7.41-.61 14.51-3.26 22-2.96 2.85.11 10.26 1.06 11.29 4.25 1.03 3.16-4.22 4.24-6.29 4.53L103 303v11l26-3.15c6.93-.83 20.82-3.84 27-2.06 2.79.8 13.79 6.22 9.36 10.21-2.09 1.88-10.47 2-13.36 2-29.76.05-59.46 3.31-89 6.85-9.99 1.19-25.12 5.26-31-5.85l23-3.17L91 315v-10c-5.71 1.02-13.25 2.13-19 1.99-2.8-.07-8.36-.51-9.83-3.35-2.09-4.02 6.74-4.46 8.83-4.69 3.97-.45 16.9-1.14 18.98-4.26 1.36-2.05 1.02-7.18 1.02-9.69-12.36.27-26.72 7.86-33-4l33-5v-12l-32 4.28c-6.09.8-16.47 2.96-22 2.68-5.77-.3-11.17-2.1-13-7.96l36-4.17L91 256v-11l-18 2.16c-7.73.83-15.15 2.3-18-7.16l26-2.15Zm24.02 5.66C103.6 245.5 104 251.44 104 254l15-1.58 5.83-1.99L126 240c-4.37 0-18.41-.09-20.98 3.51ZM313 243c-2.53 4.64-4.09 7.2-1 12 2.9-5.34 2.94-6.01 3-12h-2Zm-209 20v11c3.76-.95 13.63-1.86 15.92-4.53 1.61-1.9 2.53-6.05 3.08-8.47l-19 2Zm207 20 12-14c-8.65 1.22-16.23 3.35-12 14ZM64 337.82l10-.98 41-5.11 18-3.35c4 .18 11.78 4.74 14.11 7.94 3.7 5.11-1 7.67-2.69 16.68l-4.86 28c-1.13 3.8-3.34 9.07-6.66 11.4-2.51 1.76-5.01 1.56-7.9 1.6-.79-2.93-2.65-9.36-5.39-10.89-2.07-1.15-10 .12-12.61.47l-28.98 2.48c-6.49.56-7.16 6.73-11.61 2.58-3.2-2.99-3.48-9.49-4.16-13.64-1.82-11.12-1.82-25.57-11.25-33 2.39-7.49 7.13-4.18 13-4.18Zm65.4 2.92c-2.33-2.29-8.36-1.82-11.4-1.46l-28 3.3c-3.65.5-18.08 1.7-20 4.16-1.52 1.93-.12 8.57 0 11.26l26-3.28 26-3.54 9 1.82c0-3.11.66-10.05-1.6-12.26ZM112 361.28l-32 3.64-9-.92 2 14 23-2.75c11.68-1.9 19.07-4.39 31-2.25l3-14-18 2.28ZM291 381l8-3-1-9c-3.13 3.17-5.87 7.68-7 12Z"/>
<style>
    path {fill: #000;}
    @media (prefers-color-scheme: dark) {path {fill: #FFF;}}
</style>
</svg>