<svg version="1.0" xmlns="http://www.w3.org/2000/svg" viewBox="0 0 400 400">
<path d="M246.6 16.8c-.3.6.6 3.4 2.1 6.3 2.8 5.3 2.8 5.5 2.8 24.8v19.5l-7.3 2.3c-4.1 1.3-11.3 3-16 3.9-4.8.9-9.7 1.8-10.9 2-6 1.1 1.1 7.4 8.3 7.4 2.3 0 7.7-.9 12-2 12.3-3.1 12-3.2 7.4 6-7.6 15.1-17.2 29.4-29.2 43.4-3.3 3.7-5.7 7.1-5.4 7.4 1.1 1.1 12.2-6.6 19.8-13.7 6.5-6.1 14.5-15.7 20.6-24.7 1-1.6 1.2.8.7 13.6-.3 8.5-1.3 22.2-2.1 30.5-2 20.9-1.8 25.2.9 30 3.1 5.4 5.3 5.7 6.6.8 1.7-6.3 3.1-30.2 3.1-53.5V99l4.8 4.9c4.7 5 9.5 7.2 11.3 5.4 1.6-1.6-.1-8.1-2.9-11.4-2.6-3.1-9-6.9-11.7-6.9-1.2 0-1.5-1.5-1.5-7.9v-7.9l4.6-1.1c7.1-1.8 12.4-4.8 12.4-7.1 0-2.6-3.1-3.3-10.6-2.5l-6.4.7.5-7.4c1.2-14.8 2.6-24.7 3.9-28.6 1.2-3.4 1.2-4.3.1-6-2.4-3.4-16.6-8.4-17.9-6.4zM324.6 16.9c-.4.5.4 2.9 1.6 5.3 2.2 4.1 2.3 5.7 2.8 31.8.6 32 1 33.8 8.8 37.2 8.5 3.8 33.8 3.3 40-.8 3.9-2.6 4.8-5.8 2.7-10.3-.9-2.2-2-7.5-2.4-11.8-.8-8.5-.9-8.5-4.6 2-3.5 9.9-8.1 12.7-21.2 12.7-8.6 0-15.1-2.2-15.9-5.4-.2-1.1-.4-6.1-.2-10.9l.3-8.8 9.5-4c10-4.1 12.9-5.1 19.8-6.9 2.8-.7 4.2-1.6 4.2-2.7 0-2-9.4-11.3-11.5-11.3-.8 0-2.1 1.3-2.9 2.8-1.7 3.4-11.9 12.9-16.5 15.5l-3.2 1.9.7-7.4c.3-4 1.5-10.6 2.5-14.6 1.3-5.1 1.6-8 .9-9.2-1.6-2.9-14.2-7.1-15.4-5.1zM128.5 21.7c.4 1.6 1 15.6 1.4 31.3.7 25.9.9 28.9 2.9 33.2 4.1 9.2 14.6 13.3 32.6 12.6 9.1-.3 10.7-.7 15.6-3.4 3.5-2 6.2-4.4 7.4-6.6 2-3.5 2-3.6-.1-8.4-1.2-2.7-2.7-7.7-3.3-11.2-1.4-7.1-2.6-8.6-3.6-4.5-3.2 14.3-4.9 17.3-11.1 19.9-4.2 1.8-18.4 1.8-22.6 0-6-2.5-7.2-4.8-7.5-15.2l-.4-9.4h5c4.1 0 16.6-2.1 26.9-4.5 3-.7 5.3-3.3 4.6-5.1-.8-2.1-5.7-4.4-9.6-4.4-1.8 0-8 1.6-13.7 3.5-5.7 1.9-11 3.5-11.6 3.5-.8 0-1.1-1.1-.9-3.3.2-1.7.9-7.3 1.5-12.4.7-5.1.9-10 .6-11-.8-2.6-8.5-7.3-11.9-7.3-2.7 0-2.9.2-2.2 2.7zM46 25c-1.2.8-1.3 1.5-.1 5.7 2.5 8.9 3 12.8 3.7 27.9l.7 15-7.9 1.7c-4.3 1-12.4 2.4-17.8 3.2-5.5.8-10.4 1.9-10.9 2.4s-.1 1.7 1.2 3c1.9 1.9 3.2 2.1 11.9 2 5.3 0 11.9-.4 14.5-.8l4.8-.8-.6 2.6c-1.3 5.4-12.6 27.4-19.1 37.1-3.6 5.5-9.7 13.4-13.5 17.4-3.8 4.1-6.9 7.7-6.9 8 0 1.6 5.2.3 9-2.3 9.9-6.6 20.4-19 29.2-34.4l4.8-8.2v4.2c0 8.1-3.1 40.9-4.6 49.6-1.9 10.5-1.5 15.9 1.7 22.4 3.2 6.3 5.6 6.4 8.7.3 2.1-4.2 2.2-5.6 2.3-28.5.1-13.2.4-30.1.8-37.5l.6-13.5 5.8 8.7c6.8 10.1 7.8 11.1 10.9 10.6 1.7-.2 2.5-1.2 3.2-3.9 1.2-4.8.1-8.5-3.2-11.6-3.1-2.9-13.4-8.3-15.7-8.3-1.3 0-1.5-1.2-1.3-7.3l.3-7.2 10.4-2.7c5.7-1.4 11.5-3.1 12.8-3.7 3.6-1.7 2.9-4.7-1.7-7.1-4.9-2.5-5.9-2.5-13.7.1-3.5 1.2-6.6 2-6.8 1.7-.7-.7 1.2-23.1 2.7-30.5 1.1-6 1.1-6.4-1.2-8.8-2.5-2.7-10.5-7.5-12.4-7.5-.6 0-1.8.4-2.6 1z"/>
<path d="M84.3 36.6c-.3.9.2 3.2 1.2 5.2 3 6.2 3 38.5-.1 53.8-.9 4.5 2.3 10.8 5.7 11.2 2.1.2 4.3-1.2 10.5-7.1 4.4-4 10.6-9.8 13.9-12.7 10.9-9.7 9.7-10.7-4.8-3.9-5.8 2.8-11.1 4.8-11.7 4.4-.6-.4-1-4.9-1-11.1V66h4.3c4.2 0 17.6-2.3 21-3.5 3.7-1.5.6-5.5-5.4-7-2.4-.6-4.7 0-18.2 4.1-1.8.6-1.8 0-1.1-8.6.6-8.6.5-9.2-1.6-11.5-2.1-2.3-7.5-4.5-10.8-4.5-.7 0-1.5.7-1.9 1.6zM284 38.3c0 .9.9 3.1 1.9 4.9 3.3 5.5 5.1 14.5 5.1 25.3 0 10.4-1.7 16.3-5.3 19.4-1.2.9-1.7 2.9-1.7 6.1 0 4.8 1.6 11 2.9 11 .4 0 4.3-3.5 8.7-7.8 4.3-4.2 11.9-11.3 16.8-15.7 4.9-4.3 8.4-8.1 7.9-8.2-.6-.2-4.6 1.3-8.9 3.3-13.9 6.3-12.4 7-12.4-5.1V61h3.8c4.8 0 13.7-2.6 18-5.2 3.6-2.2 4.2-5.2 1.3-6.8-3.2-1.7-6.7-1.2-12.9 2-3.3 1.6-6.9 3-8.1 3-2.1 0-2.1-.3-1.5-6.4.6-6.1.5-6.5-1.9-8.1-1.4-.9-5.1-1.9-8.1-2.2-4.7-.5-5.6-.3-5.6 1zM115.6 94.9c-.4.5-.5 3.1-.4 5.8.3 5.7-2.4 11.7-8 18.2-3.4 3.9-4 4.3-5.9 3.2-2.9-1.5-7.2-1.4-7.9.2-.2.7.3 3.1 1.2 5.2 2.3 5.6 2.9 20.8 1.4 34.1-1.4 12.4-.7 17.2 3.2 21.4 2.3 2.5 3.5 1.9 5.5-2.7.7-1.9 1.9-3.3 2.6-3 .7.2 9.8-.2 20.2-.9 10.5-.7 19.8-1.3 20.8-1.4 1.2 0 1.7.8 1.7 2.7 0 1.6.9 4.7 2 7 2.9 6.4 6.3 5.6 10.4-2.4 1.3-2.7 1.6-7 1.6-26.1 0-18.4.3-23.8 1.6-27.6 1.5-4.4 1.5-4.8-.2-6.8-2.4-2.5-10.7-6.8-13.4-6.8-1.1 0-8.6 1.3-16.7 2.9-8.2 1.6-16.4 3.2-18.3 3.5l-3.5.6 5.2-4.7c2.8-2.7 7-6.9 9.3-9.5 4.1-4.6 4.2-4.9 2.7-7.2-2.8-4.2-13.6-8.3-15.1-5.7zm32.2 30c1.4.8 4 16.7 3 17.7-.3.2-2.7 0-5.2-.6-3.9-.9-6.9-.6-17.4 1.4-7 1.3-14.9 2.7-17.5 3.1l-4.8.6.3-8.7.3-8.7 12.5-2.3c6.9-1.3 13.6-2.5 15-2.7 4.8-.8 12.5-.7 13.8.2zm2.8 43.8c-.2.2-1.8-.3-3.5-1.2-2.9-1.4-4.4-1.4-17.7 0-8.1.8-16.6 1.5-19 1.5H106v-16l7.3-.1c3.9 0 14-1 22.2-2.2l15-2.2.3 9.9c.1 5.4.1 10.1-.2 10.3zM310.7 94.6c-.3.4-.4 2.5-.1 4.8.6 4.2-2 13-5 16.9-1.4 1.8-1.7 1.8-6.9.3-5.3-1.5-12.7-2.2-12.7-1.1 0 .3 1.2 2.8 2.6 5.5 3.3 6.3 4.3 14.4 4.4 33.7 0 12.2.3 15.9 1.7 18.8 2.8 5.8 5 4.6 6.2-3.3.6-4.5.7-4.7 4.6-5.3 2.2-.4 10.4-1 18.2-1.4l14.2-.7 1.1 4.3c4.7 18.7 6.5 21.7 10.4 17.9 6.3-5.8 8.8-18.9 7.9-40-.5-11-.3-14.6 1.1-19.3.9-3.2 1.4-6.7 1.1-7.8-.9-2.6-12.4-8.9-16.4-8.9-1.8 0-5.1 1.1-7.5 2.5-4.1 2.4-21.3 7.1-22.3 6.1-.6-.6 11.5-13 14-14.3 2.8-1.4 1.1-3.9-4.6-6.8-4.8-2.4-10.6-3.3-12-1.9zM342 122c2 3.8 3.8 31.3 2.4 36.7-.8 3-1.7 2.9-5.2-.7-2.6-2.6-3.8-3-8.4-3-2.9.1-10.6.9-17 1.9l-11.8 1.8V143l8.3-.1c16.1-.2 24.2-3.6 18.8-8-2.8-2.3-5.8-2.4-14.3-.5-3.5.8-7.8 1.6-9.5 2l-3.3.5v-12.6l11.8-1.7c6.4-1 12.4-1.9 13.2-2 .8-.2 4.3-.4 7.7-.5 5.3-.1 6.4.2 7.3 1.9zM273.3 212.2c.3 1.3 1.2 4.2 2.1 6.5 1.7 4.5 3.6 21.7 3.6 32 0 5.7-.2 6.3-2.2 6.8-4.9 1-18.2 2.5-23.1 2.5-10.6 0-12.2 1.9-5.5 6.3 5 3.2 8.7 3.4 21 .8 4.8-1 9-1.6 9.3-1.3.3.3.5 7.9.5 16.9 0 12.2-.3 16.5-1.2 16.8-1.9.7-39 5.3-48.5 6.1-4.6.4-8.3 1-8.3 1.4 0 1.1 4.3 4.6 7.7 6.4 4.4 2.2 7.5 2 24.8-1.3 8.3-1.7 17.4-3.3 20.3-3.7l5.2-.7.1 31.4c0 34.3.8 46.2 3.2 48.6 1.3 1.4 1.7 1.3 3.1-.9 3.5-5.4 4.7-16.2 5.3-49.6.3-17.7.6-32.2.7-32.2.1 0 8-1.1 17.6-2.5 9.6-1.3 22-2.8 27.6-3.1l10-.7 2.3 2.9c2.1 2.6 2.3 3.6 1.8 10.9-.6 8.8-3.7 20.1-7 25.4-3.2 5.3-7 6.4-16.9 4.6-12.8-2.3-13.7-1.8-6.2 2.9 7.8 4.9 10.6 7.8 13 13.3 1.3 2.9 3 5.3 3.7 5.3 2.7 0 10.6-6 13.7-10.4 4.6-6.7 6.5-11.7 10.5-26.4 1.9-7.3 4.6-15.4 6-18.2 3.8-7.6 3.4-10.2-2.2-14.3-10.5-7.6-9.9-7.5-28.5-3.6-6 1.2-11 2-11.3 1.7-.3-.3.8-5.8 2.5-12.4 2-8.2 3.9-13.2 6-16.2 1.6-2.3 3-5.1 3-6.1 0-2.3-3.3-5.3-9.4-8.5-5.8-3.1-9.7-3.3-14-.7-3.6 2.1-7.4 3.4-16.5 5.5l-6.4 1.5.6-12.2c.3-6.7 1.1-15.2 1.8-18.9 1.1-6.2 1.1-6.9-.6-8.8-2.3-2.5-11.6-6-16.2-6-3.2 0-3.5.2-3 2.2zm41.5 49c1.5 1.5 1.5 12.1.2 24.3-.6 4.9-1.2 9-1.3 9.1-.1.1-4 .7-8.7 1.3-4.7.7-9.7 1.4-11.2 1.7l-2.8.6v-17.6c0-19.8-1.1-17.4 8.5-19.5 5.9-1.3 13.9-1.3 15.3.1zM87.3 212.1c-1.8 1.8-1.6 3.2.6 7.1 1.7 2.8 4.2 17.8 3 17.8-.2 0-5.3.7-11.4 1.5-6 .8-13.3 1.5-16.2 1.5-8.9 0-10.4 1.5-4.9 4.9 4 2.5 10.3 2.7 23 .6 4.9-.8 9.3-1.2 9.8-.9 1 .6 1.1 11.4.1 11.4-9.4.5-65.8 7.1-66.5 7.8-.8.8 0 1.7 2.3 3.1 6.7 4.1 8.8 4.2 30.8 1.1 11.3-1.6 23.6-3.2 27.4-3.6l6.7-.7v6.1c0 7 1.3 6.3-16.5 8.7-15.3 2-16.5 2.3-16.5 3.8 0 1.8 6.4 4.7 10.3 4.7 1.8 0 7-.7 11.7-1.5 4.7-.8 9.1-1.5 9.8-1.5 1.4 0 1.8 11.5.4 12.4-.4.3-6.2 1.2-12.8 2.1-15.4 2-16.4 2.3-16.4 4 0 3.1 4 3.8 17.2 3.2l12.9-.6-.7 5.2c-.4 2.9-.7 5.3-.8 5.3 0 .1-12.2 1.4-27.1 2.8-14.8 1.5-27.8 2.9-28.8 3.2-2.7.8-1.6 2.7 3.3 5.1 5.4 2.8 7.4 2.8 27 .3 23.3-3 44.9-4.8 72-6 13.5-.6 25.5-1.3 26.8-1.6 6.5-1.3-1.9-9.3-10.6-10.1-2.6-.3-13.9.7-25.2 2.1-28.1 3.5-26 3.8-26-2.8 0-6.4-1.4-5.7 18-8.1 13.3-1.7 17-2.7 17-4.5 0-1.4-4.9-3.6-9.4-4.3-3.3-.5-17.6 1.3-22.8 2.9-1.6.5-1.8-.2-1.8-5.9v-6.4l8.3-.6c4.5-.4 10.8-.7 13.9-.7 3.1 0 6.3-.3 7.2-.6 2-.8 2.1-2.8.2-4.3-1.2-1-1.1-2.3 1-8.5l2.5-7.4 8.7-.6c4.8-.3 14.9-.8 22.5-1.2 15.9-.7 17.6-1.7 11.6-6.6-6.6-5.5-9.1-5.7-34.8-2.1-4.3.6-4.3.6-3.1-1.8.7-1.3 2.4-3.7 3.6-5.2 2.8-3.4 3.1-7.8.7-9.9-3.4-3-10.3-5.8-14.1-5.8-2.1 0-7.6 1.3-12.3 2.8-4.6 1.6-9.6 3.2-11.1 3.6-2.7.6-2.7.5-2.2-2.6.4-1.8 1.3-4.7 2.1-6.5 2-4.3.6-6.6-5.7-9.8-6.1-3.1-13-4.2-14.7-2.4zm38.5 27.8c1 .6 1.2 2.2.7 6.5-.4 3.1-1 5.6-1.4 5.6-.3.1-5.2.7-10.9 1.4s-10.5 1-10.7.6c-.8-1.3.8-12.2 1.9-12.6 1.1-.4 13.6-2.1 17.1-2.3 1.1 0 2.6.3 3.3.8zm-2.8 22.2c0 3.7-2.5 9-4.4 9.4-16.7 3.4-15.8 3.6-15.4-3.3l.3-5.7 6.5-.6c11.2-1 13-.9 13 .2zM337.1 226.9c-3 1.9 2.4 9.2 14.8 19.8 7.6 6.5 12.2 8.1 13.5 4.7 1.4-3.6.6-10.2-1.7-13.5-4.2-6.3-22.3-13.8-26.6-11zM121 331c-11.9 2.6-52 7.2-61.2 7.1-6.9 0-7.8.2-7.8 1.8 0 .9 1.1 2.8 2.5 4.1 3.3 3.1 4.8 8.3 7.6 26.4 1.6 10.3 2.9 15.6 4.2 17.2 2.2 2.8 4.7 3.1 5.4.6.4-1.5 3.5-2 24.4-4.1 15.5-1.5 24.4-2 25-1.4.5.5 1.8 3.2 2.8 5.9 2.2 5.7 4.4 6.6 8.4 3.3 4.7-3.6 6.7-9.1 9.7-27.6 2.1-12.2 3.6-18.5 5.1-20.9 1.9-3.2 2-3.6.5-5.8-2.1-3.3-11.7-8.6-15.2-8.5-1.6.1-6.7.9-11.4 1.9zm9.8 10.2c.5 1.3.6 4.6.4 7.5-.4 5.1-.4 5.2-3 4.2-4.3-1.6-10.7-1.3-28.2 1.4-9.1 1.4-19.5 2.9-23.1 3.2l-6.7.7-.6-2.8c-.3-1.6-.8-4.5-1.1-6.5l-.7-3.6 11.9-1.7c24.4-3.5 32.1-4.4 41.1-4.5 8.7-.1 9.3 0 10 2.1zm-.9 19.5c0 1-.6 4-1.3 6.8l-1.2 5-4-.3c-2.2-.2-11.2.8-20 2.2-8.7 1.4-19.2 2.8-23.1 3.2-8.3.7-7.8 1.2-8.7-8.1l-.7-6.1 6.9.4c5.3.3 33.4-2.3 45.7-4.2 5.2-.8 6.5-.6 6.4 1.1z"/>
<style>
    path {fill: #000;}
    @media (prefers-color-scheme: dark) {path {fill: #FFF;}}
</style>
</svg>