<svg xmlns="http://www.w3.org/2000/svg" viewBox="0 0 400 400">
<path d="m328 27-6.766 15L294 86c-4.784-5.003.659-13.665 3.259-19 7.91-16.23 16.363-29.451 30.741-40zm-59 110-13-6c9.709-13.555 24.371-40.361 19.566-58-2.201-8.08-15.977-7.51-15.167-15.005 1.008-9.326 15.546-23.983 21.782-30.956 3.737-4.178 9.242-10.808 4.216-16.605C284.14 7.83 279.956 7.88 277 6.448c-3.974-1.927-7.289-4.059-11.941-3.3-5.765.942-3.236 17.418-5.063 22.852-3.928 11.682-22.424 38.894-6.707 47.972 2.92 1.687 7.415 1.416 10.711 2.028-6.714 21.135-18.032 39.086-27.012 59-2.083 4.619-.375 14.558 3 18.396 6.009 6.835 17.51-16.348 22.409-5.244 4.829 10.948-9.177 23.649-7.79 34.833.495 3.989 9.121 12.438 12.393 15.015 1.823-5.751.764-10.191 1.349-15.91 1.05-10.273 3.976-20.753 5.369-31.09 2.247-16.68 2.182-32.973 13.93-46.848 5.872-6.935 8.975 5.041 14.894 1.14 7.692-5.069 14.144-13.465 21.457-19.289 2.106-1.676 5.404-5.46 8.286-5.545 9.123-.27 9.392 13.851 10.139 19.542 2.296 17.472 3.413 36.479 1.746 54-.496 5.212.779 11.025-1.175 16-3.63 9.237-13.926 12.672-17.995 21l22 7c8.803-21.463 7.039-47.172 6.039-70-.42-9.606.815-19.435-.213-29-.594-5.53-2.549-13.528-6.464-17.683-2.182-2.315-9.139-2.791-7.866-7.228C342.376 60.569 365.139 61.709 375 62c.794-3.849 3.297-9.77 1.396-13.566-2.76-5.51-17.246-2.06-21.396-.107C336.354 57.1 322.732 77.65 304 85c7.432-21.77 23.287-37.378 34.525-57 3.183-5.558 12.609-14.725 9.206-21.895C344.9.142 339.598 2.63 336 6.023c-7.755 7.315-15.306 15.73-21.985 23.995-14.721 18.22-20.123 39.92-28.224 60.982-5.82 15.13-13.151 30.122-16.791 46z"/>
<path d="M27 77c23.731-3.557 35.033-26.49 52-40-1.469-4.308-7.984-13.08-13.682-10.643C62.189 27.695 59.852 39.67 57.77 43 49.32 56.518 36.718 64.95 27 77zM98 48c3.119 6.323 10.412 7.425 17 6.83 14.651-1.325 30.188-3.682 44-8.83-1.662-5.6-8.29-8.399-14-7.584C129.176 40.674 114.277 47.3 98 48zM59 72c-5.733 30.428-35.157 43.116-52 66 17.546-1.797 30.534-19.516 44-29 .805 10.205 1.928 20.751.715 31-1.013 8.556-6.949 19.734-5.183 28 2.095 9.803 9.783 18.494 12.951 4 3.691-16.889 3.542-38.752 3.663-56 .035-5.076-6.25-9.132-5.069-14 1.988-8.189 18.312-13.6 17.457-21.96C74.865 73.5 63.975 72.105 59 72zM76 91c7.476 13.619 28.433 4.277 40 2 3.128-.615 8.601-2.594 11.581-.883 4.533 2.602 4.118 12.397 4.701 16.883 1.841 14.18 2.006 30.812.142 45-.57 4.344.467 11.095-3.127 14.382-4.23 3.868-15.199-2.934-20.297-3.382 2.262 4.85 6.282 8.202 9.985 12 3.235 3.318 7.265 11.027 12.054 12.029 7.24 1.516 11.659-9.678 12.521-15.029 3.029-18.802-.56-39.072-.56-58 0-7.915 4.388-20.774-1-27 12.02-2.232 23.953-1.004 36-2.17 2.725-.263 10.517-.456 11.079-4.093 1.501-9.714-19.243-8.741-24.079-7.74C135.494 81.104 105.911 87.2 76 91z"/>
<path d="M296 317c3.196 5.331-3.468 8.816-8 10l8-10zm21.015-91.346c13.249-4.196 6.613 17.154-2.995 19.228-8.833 1.907-3.948-17.03 2.995-19.228zM292 201c4.619 9.743 10.06 27.09-9 23 4.081 9.272 18.73 11.278 15.682 22.961-3.42 13.11-32.218 17.42-42.682 22.928-4.217 2.22-9.976 6.913-15 6.603-3.958-.244-6.738-4.625-10-6.492.385 4.381 2.044 13.42 7.213 14.642 4.915 1.162 11.277-3.404 15.787-4.985 14.952-5.245 28.592-13.451 44-17.657.972 16.682-5.705 16.92-19 24 4.96 8.994 16.383-3.805 19.382 3.232 4.996 11.725-13.015 14.304-19.323 17.684-5.316 2.849-2.625 6.759 1.941 8.084l1-3h2c.852 9.552-12.706 16.29-17.914 22.584-3.575 4.32-2.713 11.341-2.086 16.416l42-23.816L340 317c-6.525-12.122-24.329.578-34 1 .01-12.864 9.312-11.491 14-21-2.303-.801-4.827-1.32-6.998-2.454-18.996-9.92 9.894-14.644 12.912-19.844 4.952-8.534-15.715-2.598-17.914-1.702.061-7.317-.555-16.263 8-18l-4 10c11.192-1.765 14.72-12.564 24.004-16.387 12.015-4.947 23.832-.714 35.996-.613-.785-17.133-16.517-14.421-29-12-5.11-17.875-15.854-27.732-34-19-3.622-8.828-6.429-15.882-17-16zM303 363c3.438-6.77 12.058-10.858 19-13.301 2.71-.954 7.687-2.877 9.396.62C337.74 363.3 314.935 377.411 307 383c3.932-9.187 4.615-13.376-4-20zm-26 19c10.986-2.223 13.581-19.912 25-13v1c-6.208 8.194-1.146 21.189 7.001 25.687 2.542 1.403 7.526 4.483 10.381 2.27 2.965-2.298-.275-7.48 2.225-10.462 2.073-2.472 5.614-3.506 7.928-5.824 9.399-9.416 22.818-32.634 2.465-38.033-15.669-4.156-31.491 9.425-44 16.362l5-19c-13.86 7.086-17.712 27.553-16 41zM122 261c2.354 11.211-10.566 11.169-18 13v-11l18-2zm-18-7c0-14.762 9.049-14 22-14-.002 14.312-9.407 13.459-22 14zm-12-17-36 4c6.353 11.572 25.683 3.443 36 3l-1.603 11.258L73 258.166 25 264v2c18.477 7.68 47.617 1.627 67-3v14l-33 4c6.202 10.898 23.244 3.201 33 3v13l-30 5v2c9.665 3.064 20.2 2.34 30 0v12l-59 6c6.02 10.607 21.348 6.001 31 4.845 20.188-2.417 40.677-5.332 61-5.83 12.292-.301 29.658 1.771 41-3.015-2.81-5.75-8.664-8.721-15-8.956-15.397-.572-33.841 3.142-49 5.956v-13c10.419-.029 24.372-.936 34-5v-2c-11.159-5.849-22.328-.929-34 0l1-13 31-3 1-19c13.458-.578 34.926 1.81 47-4-9.642-13.367-29.139-8.309-43-5 2.184-3.553 5.271-7.149 6.842-11 2.296-5.628-3.362-9.195-7.842-11.12-11.118-4.777-21.971 3.497-33 5.12.362-4.392 4.049-10.818 1.954-14.895-2.084-4.054-16.389-11.568-19.642-5.587C85.719 216.445 91.026 232.91 92 237zM129 359l-2 14c-16.919-3.141-37.01 2.853-54 5l-2-14c17.732 1.399 40.811.092 58-5zm-59-1 .032-11.258L90 342.576l28-3.291 11.397 1.457L131 353c-18.767-3.872-42.129 1.496-61 5zm-18-19c1.93 4.22 5.301 7.526 6.776 12 3.394 10.293 2.746 21.615 5.767 31.996 1.367 4.695 5.553 8.171 7.457 2.004l34-2.166 14.61-.061L127 394c15.154-5.155 14.319-27.884 16.587-41 .709-4.096 4.053-9.009 3.82-12.996-.225-3.853-4.419-6.416-7.407-8.124-8.04-4.593-16.498-.624-25 .696-14.255 2.211-28.664 3.723-43 5.258-6.525.699-13.81-.647-20 1.166z"/>
<style>
    path {fill: #000;}
    @media (prefers-color-scheme: dark) {path {fill: #FFF;}}
</style>
</svg>